<svg width="100" height="100" viewBox="0 0 100 100" fill="none" xmlns="http://www.w3.org/2000/svg">
<rect width="100" height="100" rx="10" fill="url(#paint0_linear_7862_10786)"/>
<g filter="url(#filter0_di_7862_10786)">
<path d="M23.0097 79.7246C18.5861 79.7246 15 76.1385 15 71.7149V33C15 21.9543 23.9543 13 35 13H42.3786C47.3409 13 51.6235 13.9774 55.2265 15.9322C58.8511 17.8653 61.6451 20.5695 63.6084 24.0447C65.5717 27.4983 66.5534 31.5165 66.5534 36.0995C66.5534 40.7042 65.5502 44.7333 63.5437 48.1868C61.5588 51.6186 58.7217 54.2793 55.0324 56.169C51.343 58.0586 46.9633 59.0035 41.8932 59.0035H31.3532C27.8444 59.0035 25 56.1591 25 52.6503C25 49.1415 27.8444 46.2971 31.3532 46.2971H38.9159C41.3323 46.2971 43.3495 45.8736 44.9676 45.0265C46.6073 44.1794 47.8479 42.9957 48.6893 41.4752C49.5307 39.9331 49.9515 38.1412 49.9515 36.0995C49.9515 34.0361 49.5307 32.255 48.6893 30.7563C47.8479 29.2359 46.6073 28.063 44.9676 27.2376C43.3279 26.4123 41.3107 25.9996 38.9159 25.9996C34.5548 25.9996 31.0194 29.5349 31.0194 33.896V71.7149C31.0194 76.1385 27.4333 79.7246 23.0097 79.7246Z" fill="white"/>
<path d="M69.617 88C66.1219 88 63.123 87.276 60.6203 85.828C58.132 84.38 56.219 82.3672 54.8813 79.7898C53.5437 77.1978 52.8749 74.2004 52.8749 70.7976C52.8749 67.3802 53.5437 64.3829 54.8813 61.8054C56.2334 59.2134 58.1535 57.1935 60.6418 55.7454C63.1445 54.2974 66.1291 53.5734 69.5955 53.5734C72.6591 53.5734 75.3272 54.1309 77.5998 55.2459C79.8867 56.3608 81.6703 57.9392 82.9504 59.9809C83.3523 60.6103 83.6953 61.2739 83.9793 61.9717C85.071 64.6535 82.6116 67.1269 79.7161 67.1269H79.595C77.0546 67.1269 75.1909 64.9244 73.4142 63.1086C72.4793 62.1384 71.2567 61.6533 69.7465 61.6533C68.5239 61.6533 67.4524 62.0009 66.5318 62.6959C65.6113 63.3765 64.8921 64.3901 64.3743 65.7368C63.8709 67.0689 63.6192 68.7197 63.6192 70.689C63.6192 72.6583 63.8709 74.3235 64.3743 75.6846C64.8921 77.0313 65.6113 78.0521 66.5318 78.7472C67.4524 79.4277 68.5239 79.768 69.7465 79.768C70.7246 79.768 71.5876 79.5581 72.3355 79.1381C73.0978 78.7182 73.7235 78.1028 74.2125 77.2919C75.1298 75.7438 76.5022 74.2945 78.3017 74.2945H79.7091C82.5993 74.2945 85.035 76.7707 83.9732 79.4589C83.6901 80.1756 83.3491 80.8579 82.9504 81.5057C81.699 83.5618 79.9371 85.1619 77.6645 86.3058C75.4063 87.4353 72.7238 88 69.617 88Z" fill="white"/>
<path d="M83.3772 81.766C83.7911 81.0935 84.1447 80.3856 84.4382 79.6426C85.0461 78.1037 84.6449 76.6176 83.6991 75.539C82.7628 74.4713 81.2923 73.7945 79.7091 73.7945H78.3017C76.2182 73.7945 74.7167 75.4605 73.7831 77.0358C73.3356 77.7772 72.7722 78.3267 72.0942 78.7002L72.0907 78.7022C71.4275 79.0745 70.651 79.268 69.7465 79.268C68.6241 79.268 67.6591 78.9582 66.8311 78.3466C66.0034 77.721 65.3343 76.7868 64.8422 75.5083C64.3659 74.2191 64.1192 72.6174 64.1192 70.689C64.1192 68.7592 64.3663 67.1732 64.8416 65.9148C65.334 64.6347 66.003 63.7087 66.8291 63.098L66.8331 63.0949C67.6615 62.4695 68.6257 62.1533 69.7465 62.1533C71.139 62.1533 72.2254 62.5955 73.0542 63.4556L73.0569 63.4583C73.2154 63.6204 73.3766 63.7877 73.5405 63.9577C74.2738 64.7188 75.0613 65.536 75.9123 66.1942C76.9637 67.0072 78.1709 67.6269 79.595 67.6269H79.7161C81.3009 67.6269 82.7786 66.9516 83.718 65.8855C84.6677 64.8079 85.0686 63.3213 84.4424 61.7832C84.1474 61.0584 83.7909 60.3685 83.3731 59.7139C82.0406 57.5892 80.1844 55.9497 77.8189 54.7964C75.4651 53.6419 72.7191 53.0734 69.5955 53.0734C66.0587 53.0734 62.9841 53.8126 60.3914 55.3127L60.3904 55.3133C57.8191 56.8096 55.833 58.8998 54.438 61.5741L54.4375 61.5751C53.057 64.2353 52.3749 67.3142 52.3749 70.7976C52.3749 74.2669 53.0571 77.3453 54.437 80.0191L54.4375 80.0201C55.8185 82.6809 57.7978 84.764 60.3688 86.2601L60.3699 86.2608C62.9631 87.7612 66.0523 88.5 69.617 88.5C72.7839 88.5 75.5464 87.9243 77.8882 86.753L77.8893 86.7524C80.2403 85.569 82.0744 83.9066 83.3772 81.766ZM83.3772 81.766C83.3773 81.7659 83.3774 81.7657 83.3775 81.7656L82.9504 81.5057L83.3762 81.7678C83.3765 81.7672 83.3769 81.7666 83.3772 81.766ZM38.9159 45.7971H31.5194V33.896C31.5194 29.8111 34.8309 26.4996 38.9159 26.4996C41.2555 26.4996 43.1908 26.903 44.7428 27.6842C46.298 28.4671 47.4619 29.5711 48.2518 30.9984L48.2533 31.0011C49.0451 32.4114 49.4515 34.1046 49.4515 36.0995C49.4515 38.0704 49.046 39.7769 48.2513 41.2341C47.4608 42.6621 46.2955 43.7778 44.7381 44.5823L44.7357 44.5835C43.2085 45.383 41.2766 45.7971 38.9159 45.7971ZM31.5194 71.7149V59.5035H41.8932C47.0252 59.5035 51.4864 58.547 55.2603 56.614C59.0311 54.6826 61.9412 51.9561 63.9765 48.4371C66.0334 44.8965 67.0534 40.7784 67.0534 36.0995C67.0534 31.4437 66.0556 27.3381 64.0436 23.7985C62.0324 20.2387 59.1685 17.4683 55.4635 15.4919C51.7736 13.4904 47.4061 12.5 42.3786 12.5H35C23.6782 12.5 14.5 21.6782 14.5 33V71.7149C14.5 76.4147 18.3099 80.2246 23.0097 80.2246C27.7095 80.2246 31.5194 76.4147 31.5194 71.7149Z" stroke="#E9E9E9"/>
</g>
<defs>
<filter id="filter0_di_7862_10786" x="8.2" y="10.2" width="82.8443" height="88.6" filterUnits="userSpaceOnUse" color-interpolation-filters="sRGB">
<feFlood flood-opacity="0" result="BackgroundImageFix"/>
<feColorMatrix in="SourceAlpha" type="matrix" values="0 0 0 0 0 0 0 0 0 0 0 0 0 0 0 0 0 0 127 0" result="hardAlpha"/>
<feOffset dy="4"/>
<feGaussianBlur stdDeviation="2.9"/>
<feComposite in2="hardAlpha" operator="out"/>
<feColorMatrix type="matrix" values="0 0 0 0 1 0 0 0 0 1 0 0 0 0 1 0 0 0 0.1 0"/>
<feBlend mode="normal" in2="BackgroundImageFix" result="effect1_dropShadow_7862_10786"/>
<feBlend mode="normal" in="SourceGraphic" in2="effect1_dropShadow_7862_10786" result="shape"/>
<feColorMatrix in="SourceAlpha" type="matrix" values="0 0 0 0 0 0 0 0 0 0 0 0 0 0 0 0 0 0 127 0" result="hardAlpha"/>
<feOffset dx="3" dy="3"/>
<feGaussianBlur stdDeviation="4.25"/>
<feComposite in2="hardAlpha" operator="arithmetic" k2="-1" k3="1"/>
<feColorMatrix type="matrix" values="0 0 0 0 0 0 0 0 0 0 0 0 0 0 0 0 0 0 0.33 0"/>
<feBlend mode="normal" in2="shape" result="effect2_innerShadow_7862_10786"/>
</filter>
<linearGradient id="paint0_linear_7862_10786" x1="0.999999" y1="2.5" x2="98" y2="100" gradientUnits="userSpaceOnUse">
<stop offset="0.0051662" stop-color="#8F5AEB"/>
<stop offset="0.39" stop-color="#3078DD"/>
<stop offset="0.63" stop-color="#3078DD"/>
<stop offset="1" stop-color="#86C4EA"/>
</linearGradient>
</defs>
</svg>
